<svg width="78" height="78" viewBox="0 0 78 78" fill="none" xmlns="http://www.w3.org/2000/svg">
<path d="M19.4999 34.32C19.4999 33.0277 18.4523 31.98 17.1599 31.98C15.8676 31.98 14.8199 33.0277 14.8199 34.32H19.4999ZM35.8799 63.18C37.1723 63.18 38.2199 62.1323 38.2199 60.84C38.2199 59.5477 37.1723 58.5 35.8799 58.5V63.18ZM14.8199 34.32C14.8199 35.6123 15.8676 36.66 17.1599 36.66C18.4523 36.66 19.4999 35.6123 19.4999 34.32H14.8199ZM35.8799 19.5C37.1723 19.5 38.2199 18.4523 38.2199 17.16C38.2199 15.8677 37.1723 14.82 35.8799 14.82V19.5ZM17.1599 31.98C15.8676 31.98 14.8199 33.0277 14.8199 34.32C14.8199 35.6123 15.8676 36.66 17.1599 36.66V31.98ZM35.8799 36.66C37.1723 36.66 38.2199 35.6123 38.2199 34.32C38.2199 33.0277 37.1723 31.98 35.8799 31.98V36.66ZM33.5399 34.32C33.5399 35.6123 34.5876 36.66 35.8799 36.66C37.1723 36.66 38.2199 35.6123 38.2199 34.32H33.5399ZM38.2199 17.16C38.2199 15.8677 37.1723 14.82 35.8799 14.82C34.5876 14.82 33.5399 15.8677 33.5399 17.16H38.2199ZM38.2199 34.32C38.2199 33.0277 37.1723 31.98 35.8799 31.98C34.5876 31.98 33.5399 33.0277 33.5399 34.32H38.2199ZM33.5399 45.24C33.5399 46.5323 34.5876 47.58 35.8799 47.58C37.1723 47.58 38.2199 46.5323 38.2199 45.24H33.5399ZM35.8799 58.5C34.5876 58.5 33.5399 59.5477 33.5399 60.84C33.5399 62.1323 34.5876 63.18 35.8799 63.18V58.5ZM63.1799 45.24C63.1799 43.9477 62.1323 42.9 60.8399 42.9C59.5476 42.9 58.4999 43.9477 58.4999 45.24H63.1799ZM33.5399 60.84C33.5399 62.1323 34.5876 63.18 35.8799 63.18C37.1723 63.18 38.2199 62.1323 38.2199 60.84H33.5399ZM38.2199 45.24C38.2199 43.9477 37.1723 42.9 35.8799 42.9C34.5876 42.9 33.5399 43.9477 33.5399 45.24H38.2199ZM35.8799 14.82C34.5876 14.82 33.5399 15.8677 33.5399 17.16C33.5399 18.4523 34.5876 19.5 35.8799 19.5V14.82ZM58.4999 45.24C58.4999 46.5323 59.5476 47.58 60.8399 47.58C62.1323 47.58 63.1799 46.5323 63.1799 45.24H58.4999ZM60.8399 47.58C62.1323 47.58 63.1799 46.5323 63.1799 45.24C63.1799 43.9477 62.1323 42.9 60.8399 42.9V47.58ZM35.8799 42.9C34.5876 42.9 33.5399 43.9477 33.5399 45.24C33.5399 46.5323 34.5876 47.58 35.8799 47.58V42.9ZM14.8199 34.32V48.36H19.4999V34.32H14.8199ZM14.8199 48.36C14.8199 56.545 21.4551 63.18 29.6399 63.18V58.5C24.0398 58.5 19.4999 53.9601 19.4999 48.36H14.8199ZM29.6399 63.18H35.8799V58.5H29.6399V63.18ZM19.4999 34.32V29.64H14.8199V34.32H19.4999ZM19.4999 29.64C19.4999 24.0398 24.0398 19.5 29.6399 19.5V14.82C21.4551 14.82 14.8199 21.4552 14.8199 29.64H19.4999ZM29.6399 19.5H35.8799V14.82H29.6399V19.5ZM17.1599 36.66H35.8799V31.98H17.1599V36.66ZM38.2199 34.32V17.16H33.5399V34.32H38.2199ZM33.5399 34.32V45.24H38.2199V34.32H33.5399ZM35.8799 63.18H48.3599V58.5H35.8799V63.18ZM48.3599 63.18C56.545 63.18 63.1799 56.545 63.1799 48.36H58.4999C58.4999 53.9601 53.96 58.5 48.3599 58.5V63.18ZM63.1799 48.36V45.24H58.4999V48.36H63.1799ZM38.2199 60.84V45.24H33.5399V60.84H38.2199ZM35.8799 19.5H48.3599V14.82H35.8799V19.5ZM48.3599 19.5C53.96 19.5 58.4999 24.0398 58.4999 29.64H63.1799C63.1799 21.4552 56.545 14.82 48.3599 14.82V19.5ZM58.4999 29.64V45.24H63.1799V29.64H58.4999ZM60.8399 42.9H35.8799V47.58H60.8399V42.9Z" fill="#5C5C5C"/>
</svg>
