<svg width="60" height="60" viewBox="0 0 60 60" fill="none" xmlns="http://www.w3.org/2000/svg">
<path d="M50 7.5H10C8.67392 7.5 7.40215 8.02678 6.46447 8.96447C5.52678 9.90215 5 11.1739 5 12.5V47.5C5 48.8261 5.52678 50.0979 6.46447 51.0355C7.40215 51.9732 8.67392 52.5 10 52.5H50C51.3261 52.5 52.5979 51.9732 53.5355 51.0355C54.4732 50.0979 55 48.8261 55 47.5V12.5C55 11.1739 54.4732 9.90215 53.5355 8.96447C52.5979 8.02678 51.3261 7.5 50 7.5ZM27.5 42.5H12.5V37.5H27.5V42.5ZM47.5 32.5H12.5V27.5H47.5V32.5ZM47.5 22.5H12.5V17.5H47.5V22.5Z" fill="#3590FF"/>
</svg>
