<svg width="60" height="60" viewBox="0 0 60 60" fill="none" xmlns="http://www.w3.org/2000/svg">
<path d="M58.9785 27.3523C58.0178 25.999 56.5051 25.1634 54.8643 25.0432V19.82C54.8651 18.3746 54.2722 17.047 53.3244 16.1024C52.3789 15.1546 51.0521 14.5625 49.6068 14.5632H25.8008C25.5084 14.5632 25.2247 14.4518 25.0092 14.2491L25.0107 14.2515L20.8277 10.3288C19.8526 9.41543 18.5675 8.9066 17.232 8.9066H10.3943C8.94891 8.90578 7.62129 9.49875 6.67664 10.4466C5.72883 11.3911 5.13598 12.7188 5.1368 14.1642V25.0432C3.49594 25.1634 1.98316 25.999 1.02246 27.3531C0.349336 28.3018 0 29.4251 0 30.5588C0 31.1733 0.102539 31.7927 0.311719 32.3888L5.25117 46.5127C5.28012 46.5935 5.30965 46.6649 5.34738 46.7419C5.57414 47.2009 5.78566 47.652 6.02355 48.1023C6.38332 48.7697 6.79512 49.4828 7.54031 50.1109C7.91039 50.4193 8.36473 50.6837 8.85902 50.8512C9.35414 51.0203 9.87574 51.094 10.3942 51.0933H49.6066C50.4623 51.098 51.2684 50.8177 51.8741 50.4241C52.7939 49.8281 53.3379 49.0685 53.7529 48.4083C54.1607 47.7465 54.4436 47.1304 54.6214 46.8042C54.6784 46.6969 54.7089 46.6271 54.7488 46.5127L59.6891 32.3879C59.8975 31.7926 60 31.1733 60 30.5588C60 29.4251 59.6515 28.3018 58.9785 27.3523ZM50.7619 25.0192H9.23883V14.1643C9.23965 13.839 9.36469 13.5634 9.57691 13.3471C9.79324 13.1347 10.0689 13.0098 10.3942 13.009H17.2318C17.5259 13.009 17.807 13.1204 18.0226 13.3215L22.205 17.2436L22.2066 17.2459C23.1792 18.1553 24.4636 18.6656 25.8008 18.6656H49.6066C49.932 18.6663 50.2083 18.7915 50.4239 19.0037C50.6362 19.2192 50.7613 19.4948 50.762 19.8202V25.0192H50.7619Z" fill="#00A6FF"/>
</svg>
