<svg width="60" height="60" viewBox="0 0 60 60" fill="none" xmlns="http://www.w3.org/2000/svg">
<g clip-path="url(#clip0_27_12)">
<path d="M38.9691 32.8874C38.4691 31.6025 37.0216 30.9675 35.7316 31.4625L35.3516 31.61C33.8816 28.9301 31.7192 26.6901 29.1217 25.0951L29.4417 24.3775C29.9992 23.1151 29.4342 21.6376 28.1718 21.0776C26.9067 20.5176 25.4318 21.0901 24.8718 22.3475L24.5293 23.115C23.0818 22.7274 21.5693 22.5 19.9994 22.5C18.4493 22.5 16.9494 22.7225 15.5169 23.105L15.2643 22.455C14.7643 21.17 13.3119 20.5401 12.0269 21.03C10.7393 21.53 10.1019 22.98 10.6019 24.2675L10.9144 25.0724C8.44449 26.5824 6.37945 28.6799 4.91205 31.1798L3.51707 30.5598C2.25955 30.0023 0.779614 30.5673 0.214662 31.8273C-0.34279 33.0897 0.222162 34.5672 1.4846 35.1297L3.02712 35.8146C2.69712 37.1596 2.49967 38.5545 2.49967 39.9996C2.49967 41.442 2.69466 42.837 3.02712 44.1794L1.59464 44.7369C0.3097 45.2369 -0.32779 46.6869 0.169663 47.9718C0.554618 48.9618 1.4996 49.5668 2.49967 49.5668C2.8047 49.5668 3.10962 49.5143 3.40715 49.3994L4.90959 48.8144C6.25957 51.1168 8.107 53.0893 10.322 54.5668L9.60955 56.7142C9.17456 58.0217 9.88705 59.4367 11.1971 59.8717C11.4571 59.9566 11.7221 59.9992 11.9821 59.9992C13.0296 59.9992 14.0071 59.3341 14.3571 58.2842L14.8721 56.7292C16.4946 57.2267 18.2171 57.4992 19.9996 57.4992C21.1621 57.4992 22.2946 57.3792 23.392 57.1642L23.8744 58.4042C24.262 59.3941 25.207 59.9992 26.2069 59.9992C26.5094 59.9992 26.8144 59.9467 27.1119 59.8317C28.3995 59.3292 29.0369 57.8793 28.5394 56.5942L28.1094 55.4917C30.6768 54.1442 32.8718 52.1843 34.4918 49.7993L35.6243 50.3018C35.9518 50.4494 36.2968 50.5169 36.6368 50.5169C37.5968 50.5169 38.5093 49.9619 38.9243 49.0319C39.4817 47.7694 38.9168 46.2944 37.6543 45.7319L36.6769 45.2969C37.2094 43.6245 37.4994 41.847 37.4994 39.9996C37.4994 38.7296 37.3569 37.4921 37.0994 36.2996L37.5444 36.1247C38.8317 35.6249 39.4692 34.1774 38.9691 32.8874Z" fill="#66FD66"/>
<path d="M57.5002 15.0002H54.7477C54.4228 13.4078 53.7878 11.9277 52.9178 10.6178L54.8728 8.66282C55.8502 7.68538 55.8502 6.1029 54.8728 5.12792C53.8978 4.15047 52.3153 4.15047 51.3379 5.12792L49.3829 7.08293C48.0728 6.21294 46.5929 5.57791 45.0005 5.25295V2.50038C45.0005 1.11794 43.883 0.000457764 42.5005 0.000457764C41.1181 0.000457764 40.0006 1.11794 40.0006 2.50038V5.25284C38.4082 5.57779 36.9281 6.21282 35.6182 7.08281L33.6632 5.1278C32.6858 4.15035 31.1033 4.15035 30.1283 5.1278C29.1509 6.10278 29.1509 7.68526 30.1283 8.66271L32.0833 10.6177C31.2133 11.9277 30.5783 13.4077 30.2534 15.0001H27.5009C26.1185 15.0001 25.001 16.1176 25.001 17.5C25.001 18.8825 26.1185 20 27.5009 20H30.2534C31.2508 24.8899 35.1108 28.7499 40.0007 29.7473V32.4998C40.0007 33.8822 41.1182 34.9997 42.5007 34.9997C43.8831 34.9997 45.0006 33.8822 45.0006 32.4998V29.7473C46.593 29.4224 48.0731 28.7874 49.383 27.9174L51.338 29.8724C51.8255 30.3623 52.4654 30.6049 53.1055 30.6049C53.7455 30.6049 54.3855 30.3624 54.873 29.8724C55.8505 28.8974 55.8505 27.3149 54.873 26.3375L52.918 24.3825C53.788 23.0724 54.423 21.5925 54.748 20.0001H57.5004C58.8829 20.0001 60.0004 18.8826 60.0004 17.5001C60.0001 16.1177 58.8826 15.0002 57.5002 15.0002ZM42.5004 20.0002C41.1205 20.0002 40.0005 18.8802 40.0005 17.5003C40.0005 16.1203 41.1205 15.0003 42.5004 15.0003C43.8804 15.0003 45.0004 16.1203 45.0004 17.5003C45.0004 18.8802 43.8804 20.0002 42.5004 20.0002Z" fill="#66FD66"/>
</g>
<defs>
<clipPath id="clip0_27_12">
<rect width="60" height="60" fill="white"/>
</clipPath>
</defs>
</svg>
