<svg width="60" height="60" viewBox="0 0 60 60" fill="none" xmlns="http://www.w3.org/2000/svg">
<g clip-path="url(#clip0_31_8)">
<path d="M44.538 4.209L55.794 15.468L57.669 13.59C58.4081 12.8509 58.9944 11.9735 59.3943 11.0079C59.7943 10.0422 60.0002 9.00722 60.0002 7.962C60.0002 6.91679 59.7943 5.8818 59.3943 4.91615C58.9944 3.9505 58.4081 3.07308 57.669 2.334C56.9299 1.59492 56.0525 1.00865 55.0869 0.608665C54.1212 0.208678 53.0862 0.00280762 52.041 0.00280762C49.9301 0.00280762 47.9056 0.841363 46.413 2.334L44.538 4.209ZM50.625 20.625L39.369 9.366L3.654 45.084L0 59.994L14.91 56.343L50.625 20.625Z" fill="#80FF80"/>
</g>
<defs>
<clipPath id="clip0_31_8">
<rect width="60" height="60" fill="white"/>
</clipPath>
</defs>
</svg>
