<svg width="26" height="41" viewBox="0 0 26 41" fill="none" xmlns="http://www.w3.org/2000/svg">
<path d="M25.4388 21.0219C25.3971 20.7356 25.2948 20.4609 25.1384 20.2159C24.982 19.9709 24.7751 19.7612 24.5312 19.6003L17.9773 15.2766L21.5061 2.70505C21.625 2.26892 21.5949 1.80576 21.4204 1.38732C21.2458 0.968887 20.9366 0.618545 20.5406 0.390586C20.1447 0.162628 19.6841 0.0697818 19.2302 0.126435C18.7763 0.183087 18.3545 0.386076 18.0301 0.703946L1.22408 17.177C0.996179 17.3989 0.823468 17.67 0.719426 17.9691C0.615385 18.2683 0.58283 18.5873 0.624303 18.9014C0.676233 19.217 0.798462 19.5174 0.982153 19.7811C1.16584 20.0447 1.40641 20.2649 1.68646 20.4258L10.0482 25.0446L6.53785 37.4735C6.41541 37.9201 6.44944 38.3949 6.63442 38.821C6.81939 39.247 7.14446 39.5993 7.55691 39.8208C7.78595 39.9509 8.03962 40.033 8.30198 40.0617C8.64206 40.1038 8.98711 40.0623 9.30649 39.9408C9.62587 39.8194 9.90968 39.6218 10.1327 39.3657L24.8754 22.6268C25.08 22.4149 25.2361 22.162 25.3333 21.8852C25.4305 21.6084 25.4664 21.314 25.4388 21.0219Z" fill="#80FF80"/>
</svg>
