<svg width="176" height="45" viewBox="0 0 176 45" fill="none" xmlns="http://www.w3.org/2000/svg">
<path d="M63.9704 9.72727L60.1068 33H55.3341L48.3227 19.5682H48.1636L45.925 33H40.3L44.1636 9.72727H49.0045L55.9591 23.1364H56.1523L58.3568 9.72727H63.9704ZM71.7574 33.3295C69.9316 33.3295 68.4165 32.9697 67.2119 32.25C66.0149 31.5227 65.174 30.4886 64.6892 29.1477C64.2043 27.7992 64.1172 26.197 64.4278 24.3409C64.7309 22.5379 65.3483 20.9621 66.2801 19.6136C67.2195 18.2576 68.4013 17.2045 69.8256 16.4545C71.2498 15.697 72.8369 15.3182 74.5869 15.3182C75.8293 15.3182 76.9316 15.5114 77.8937 15.8977C78.8559 16.2841 79.6513 16.8598 80.2801 17.625C80.9089 18.3826 81.3369 19.3144 81.5642 20.4205C81.7915 21.5265 81.7839 22.7955 81.5415 24.2273L81.3256 25.6136H66.1665L66.6778 22.3864H76.6778C76.7687 21.7955 76.7195 21.2689 76.5301 20.8068C76.3407 20.3447 76.0339 19.9848 75.6096 19.7273C75.193 19.4621 74.6816 19.3295 74.0756 19.3295C73.4619 19.3295 72.8862 19.4735 72.3483 19.7614C71.818 20.0417 71.3672 20.4205 70.996 20.8977C70.6248 21.375 70.3824 21.9129 70.2687 22.5114L69.6665 25.8182C69.5452 26.553 69.5793 27.1818 69.7687 27.7045C69.9581 28.2273 70.2839 28.6288 70.746 28.9091C71.2081 29.1818 71.8028 29.3182 72.5301 29.3182C73.0149 29.3182 73.4695 29.2538 73.8937 29.125C74.318 28.9886 74.6968 28.7879 75.0301 28.5227C75.371 28.25 75.6475 27.9205 75.8596 27.5341L80.9278 27.6818C80.5187 28.8258 79.8862 29.822 79.0301 30.6705C78.174 31.5114 77.1286 32.1667 75.8937 32.6364C74.6665 33.0985 73.2877 33.3295 71.7574 33.3295ZM90.3113 15.5455L92.2204 21.2955L96.1636 15.5455H101.766L95.4363 24.2727L99.0386 33H93.4818L91.2318 27.2045L87.1523 33H81.5159L88.0386 24.2727L84.675 15.5455H90.3113ZM114.155 15.5455L113.462 19.6364H102.451L103.144 15.5455H114.155ZM106.132 11.3636H111.689L109.007 27.5114C108.954 27.8523 108.962 28.1288 109.03 28.3409C109.106 28.5455 109.242 28.6932 109.439 28.7841C109.644 28.8674 109.894 28.9091 110.189 28.9091C110.394 28.9091 110.621 28.8864 110.871 28.8409C111.121 28.7955 111.31 28.7614 111.439 28.7386L111.621 32.75C111.326 32.8333 110.928 32.928 110.428 33.0341C109.935 33.1477 109.36 33.2197 108.701 33.25C107.367 33.303 106.265 33.1477 105.394 32.7841C104.53 32.4129 103.92 31.8371 103.564 31.0568C103.216 30.2765 103.148 29.2992 103.36 28.125L106.132 11.3636ZM132.024 9.72727H137.638L135.149 24.7386C134.862 26.4735 134.199 27.9848 133.161 29.2727C132.13 30.553 130.816 31.5455 129.218 32.25C127.619 32.947 125.839 33.2955 123.877 33.2955C121.907 33.2955 120.244 32.947 118.888 32.25C117.532 31.5455 116.551 30.553 115.945 29.2727C115.339 27.9848 115.176 26.4735 115.456 24.7386L117.945 9.72727H123.57L121.149 24.25C121.021 25.053 121.081 25.7689 121.331 26.3977C121.589 27.0189 122.005 27.5114 122.581 27.875C123.157 28.2311 123.862 28.4091 124.695 28.4091C125.536 28.4091 126.305 28.2311 127.002 27.875C127.699 27.5114 128.274 27.0189 128.729 26.3977C129.184 25.7689 129.475 25.053 129.604 24.25L132.024 9.72727ZM136.243 39.5455L140.266 15.5455H145.766L145.277 18.5341H145.448C145.751 18.0038 146.152 17.4924 146.652 17C147.16 16.5076 147.77 16.1061 148.482 15.7955C149.194 15.4773 150.008 15.3182 150.925 15.3182C152.137 15.3182 153.217 15.6364 154.164 16.2727C155.111 16.9091 155.8 17.8902 156.232 19.2159C156.664 20.5417 156.709 22.2311 156.368 24.2841C156.042 26.2614 155.451 27.9167 154.595 29.25C153.747 30.5833 152.739 31.5833 151.573 32.25C150.406 32.9167 149.183 33.25 147.902 33.25C147.023 33.25 146.281 33.1061 145.675 32.8182C145.076 32.5303 144.603 32.1515 144.255 31.6818C143.906 31.2121 143.664 30.7083 143.527 30.1705H143.368L141.823 39.5455H136.243ZM144.255 24.2727C144.103 25.2121 144.095 26.0303 144.232 26.7273C144.368 27.4242 144.645 27.9659 145.061 28.3523C145.486 28.7311 146.035 28.9205 146.709 28.9205C147.391 28.9205 147.997 28.7311 148.527 28.3523C149.065 27.9659 149.516 27.4242 149.88 26.7273C150.243 26.0303 150.508 25.2121 150.675 24.2727C150.819 23.3333 150.823 22.5189 150.686 21.8295C150.558 21.1402 150.289 20.6061 149.88 20.2273C149.47 19.8485 148.921 19.6591 148.232 19.6591C147.558 19.6591 146.944 19.8447 146.391 20.2159C145.845 20.5871 145.391 21.1174 145.027 21.8068C144.664 22.4962 144.406 23.3182 144.255 24.2727ZM175.059 9.72727L171.877 25.875H167.24L169.388 9.72727H175.059ZM168.593 33.3295C167.767 33.3295 167.093 33.0417 166.57 32.4659C166.047 31.8902 165.82 31.1932 165.888 30.375C165.964 29.572 166.32 28.8864 166.956 28.3182C167.593 27.75 168.32 27.4659 169.138 27.4659C169.918 27.4659 170.574 27.75 171.104 28.3182C171.642 28.8864 171.873 29.572 171.797 30.375C171.752 30.9205 171.566 31.4167 171.24 31.8636C170.922 32.3106 170.528 32.6667 170.059 32.9318C169.589 33.197 169.1 33.3295 168.593 33.3295Z" fill="white"/>
<path d="M28.1898 23.7102C28.1481 23.4238 28.0457 23.1491 27.8893 22.9041C27.7329 22.6592 27.526 22.4494 27.2822 22.2885L20.7283 17.9649L24.2571 5.39328C24.376 4.95716 24.3459 4.49399 24.1713 4.07555C23.9968 3.65712 23.6876 3.30678 23.2916 3.07882C22.8957 2.85086 22.435 2.75801 21.9812 2.81467C21.5273 2.87132 21.1055 3.07431 20.7811 3.39218L3.97505 19.8652C3.74716 20.0871 3.57444 20.3582 3.4704 20.6574C3.36636 20.9565 3.33381 21.2756 3.37528 21.5896C3.42721 21.9052 3.54944 22.2057 3.73313 22.4693C3.91682 22.7329 4.15738 22.9531 4.43744 23.114L12.7992 27.7328L9.28882 40.1618C9.16639 40.6083 9.20042 41.0832 9.38539 41.5092C9.57037 41.9353 9.89544 42.2876 10.3079 42.509C10.5369 42.6391 10.7906 42.7212 11.053 42.75C11.393 42.792 11.7381 42.7505 12.0575 42.6291C12.3768 42.5076 12.6607 42.3101 12.8837 42.0539L27.6264 25.3151C27.8309 25.1031 27.9871 24.8503 28.0843 24.5735C28.1814 24.2966 28.2174 24.0023 28.1898 23.7102Z" fill="#80FF80"/>
</svg>
