<svg width="60" height="60" viewBox="0 0 60 60" fill="none" xmlns="http://www.w3.org/2000/svg">
<path d="M30 3.75C36.9619 3.75 43.6387 6.51562 48.5616 11.4384C53.4844 16.3613 56.25 23.0381 56.25 30C56.25 36.9619 53.4844 43.6387 48.5616 48.5616C43.6387 53.4844 36.9619 56.25 30 56.25C23.0381 56.25 16.3613 53.4844 11.4384 48.5616C6.51562 43.6387 3.75 36.9619 3.75 30C3.75 23.0381 6.51562 16.3613 11.4384 11.4384C16.3613 6.51562 23.0381 3.75 30 3.75ZM16.875 30C16.875 30.5967 17.1121 31.169 17.534 31.591C17.956 32.0129 18.5283 32.25 19.125 32.25H40.875C41.4717 32.25 42.044 32.0129 42.466 31.591C42.8879 31.169 43.125 30.5967 43.125 30C43.125 29.4033 42.8879 28.831 42.466 28.409C42.044 27.9871 41.4717 27.75 40.875 27.75H19.125C18.8295 27.75 18.5369 27.8082 18.264 27.9213C17.991 28.0343 17.7429 28.2001 17.534 28.409C17.3251 28.6179 17.1593 28.866 17.0463 29.139C16.9332 29.4119 16.875 29.7045 16.875 30Z" fill="#FC272B"/>
</svg>
