<svg width="60" height="60" viewBox="0 0 60 60" fill="none" xmlns="http://www.w3.org/2000/svg">
<g clip-path="url(#clip0_32_14)">
<path d="M11.646 54.6086C11.8185 57.5746 14.3893 60 17.3589 60H24.0571C27.0269 60 31.8877 60 34.8574 60H41.5556C44.5253 60 47.0968 57.5746 47.2694 54.6086L49.2364 20.6727H9.67822L11.646 54.6086Z" fill="#FF7375"/>
<path d="M50.0401 12.5416C49.4949 12.1746 44.6851 9.31816 37.059 7.1475C37.0663 7.11187 37.0737 7.07894 37.0811 7.04426C37.6892 3.82078 35.5697 0.71414 32.3472 0.104179C29.1226 -0.504024 26.016 1.61355 25.406 4.83809C25.3997 4.8709 25.395 4.90559 25.3896 4.94121C17.4969 4.17879 11.9732 5.0809 11.333 5.2234C10.2162 5.47172 9.95592 6.03434 9.78881 6.92004C9.67654 7.51184 9.06201 10.7627 9.06201 10.7627L50.1344 18.5266C50.1344 18.5266 50.749 15.2757 50.8614 14.6841C51.028 13.7982 50.9915 13.1801 50.0401 12.5416ZM33.7853 6.30656C32.9707 6.12023 32.1353 5.94305 31.2731 5.78051C30.4121 5.61609 29.5692 5.47734 28.7427 5.355C29.0577 4.02363 30.3637 3.16148 31.7206 3.41637C33.0776 3.67465 33.978 4.95316 33.7853 6.30656Z" fill="#FF7375"/>
</g>
<defs>
<clipPath id="clip0_32_14">
<rect width="60" height="60" fill="white"/>
</clipPath>
</defs>
</svg>
