<svg width="60" height="60" viewBox="0 0 60 60" fill="none" xmlns="http://www.w3.org/2000/svg">
<path d="M5 19.5281V40.4782C5 44.2032 5.9 47.303 7.625 49.6782C8.35 50.7282 9.275 51.653 10.325 52.3782C12.375 53.8782 14.975 54.753 18.05 54.953V5.07812C9.85 5.60312 5 10.9281 5 19.5281Z" fill="#FCFFB2"/>
<path d="M52.3768 10.325C51.6518 9.275 50.7268 8.35 49.6768 7.625C47.3018 5.9 44.2018 5 40.4768 5H21.8018V55H40.4768C49.5768 55 55.0018 49.575 55.0018 40.475V19.525C55.0018 15.8 54.1018 12.7 52.3768 10.325ZM38.7518 35.075C39.4768 35.8 39.4768 37 38.7518 37.725C38.3768 38.1 37.9018 38.275 37.4268 38.275C36.9518 38.275 36.4768 38.1 36.1018 37.725L29.7018 31.325C28.9768 30.6 28.9768 29.4 29.7018 28.675L36.1018 22.275C36.8268 21.55 38.0268 21.55 38.7518 22.275C39.4768 23 39.4768 24.2 38.7518 24.925L33.7018 30L38.7518 35.075Z" fill="#FCFFB2"/>
</svg>
