<svg width="60" height="60" viewBox="0 0 60 60" fill="none" xmlns="http://www.w3.org/2000/svg">
<path d="M25.298 10.2359C26.988 9.0081 27.833 8.39417 28.7568 8.15695C29.5725 7.94752 30.428 7.94752 31.2438 8.15695C32.1675 8.39417 33.0125 9.0081 34.7025 10.2359L49.0745 20.6777C50.7645 21.9055 51.6093 22.5195 52.1205 23.3248C52.5718 24.0359 52.836 24.8494 52.889 25.69C52.9488 26.642 52.626 27.6352 51.9805 29.622L46.491 46.517C45.8455 48.5037 45.5228 49.4972 44.9148 50.232C44.378 50.881 43.6858 51.3837 42.9028 51.6937C42.016 52.045 40.9715 52.045 38.8825 52.045H21.118C19.029 52.045 17.9845 52.045 17.0977 51.6937C16.3147 51.3837 15.6226 50.881 15.0858 50.232C14.4778 49.4972 14.155 48.5037 13.5095 46.517L8.01995 29.622C7.37443 27.6352 7.05165 26.642 7.11155 25.69C7.16443 24.8494 7.42878 24.0359 7.88005 23.3248C8.39113 22.5195 9.23613 21.9055 10.9261 20.6777L25.298 10.2359Z" stroke="#5C5C5C" stroke-width="5" stroke-linejoin="round"/>
</svg>
